<svg width="383" height="340" viewBox="0 0 383 340" fill="none" xmlns="http://www.w3.org/2000/svg">
<path d="M272.805 100.81C241.575 114.894 212.6 134.607 195.365 164.947C168.156 212.854 188.551 292.318 140.734 328.968C127.856 338.838 110.433 341.995 94.5038 338.801C83.9361 336.679 73.7968 331.944 64.1991 325.595C83.6996 321.068 99.5289 309.131 102.316 285.936C103.673 274.637 101.404 263.26 99.3815 252.063C93.6263 220.163 104.821 198.365 118.118 170.243C129.364 146.46 136.812 121.891 121.816 97.7798C106.484 73.1324 80.2204 51.6112 52.6888 42.1404C34.8131 35.9905 16.7351 34.6785 -1 36.913V0H383C374.914 62.025 322.884 78.2231 272.805 100.81Z" fill="#FFEFE2"/>
<path d="M52.594 42.2493C80.077 51.7233 106.294 73.2517 121.599 97.9073C136.569 122.023 129.134 146.603 117.907 170.394C104.635 198.526 93.4559 220.331 99.2043 252.242C101.22 263.446 103.485 274.823 102.133 286.126C99.3514 309.329 83.55 321.271 64.084 325.799C43.417 330.608 18.6166 327.06 0.87851 319.767C0.248917 319.507 -0.373825 319.24 -1 318.977V37.0167C16.7004 34.7849 34.7499 36.0974 52.594 42.2493Z" fill="#EDE6F6"/>
</svg>
